<?xml version="1.0" encoding="utf-8"?>
<?xml-stylesheet type="text/xsl" href="rss1.xsl"?>
<rss version="2.0" xmlns:atom="http://www.w3.org/2005/Atom" xmlns:content="http://purl.org/rss/1.0/modules/content/" xmlns:dc="http://purl.org/dc/elements/1.1/" xmlns:media="http://search.yahoo.com/mrss/">
<channel>
 <title>Getty</title>
 <link>http://www.gettyimg.com/</link>
 <atom:link href="http://www.gettyimg.com/" rel="self" type="application/rss+xml" />

 
                <item>
                <title><![CDATA[【Interviews / TV shows / Others】HDTV - Whitney Houston - Remembering Whitney - The Oprah Interview 1080i HDTV DD5.1 MPEG2-TrollHD]]></title>
                <link><![CDATA[https://sharemania.us/threads/whitney-houston-remembering-whitney-the-oprah-interview-1080i-hdtv-dd5-1-mpeg2-trollhd.227283/]]></link>
                <description><![CDATA[<article>
<blockquote class="messageText SelectQuoteContainer ugc baseHtml">
<div style="text-align: center"><b><span style="color: #ff0000">Remembering Whitney - The Oprah Interview 1080i HDTV DD5.1 MPEG2-TrollHD</span></b><br>
<br>
<img src="https://i.imgur.com/tUCPbIZ.jpg" class="bbCodeImage LbImage" alt="[​IMG]" data-url="https://i.imgur.com/tUCPbIZ.jpg" style=""><br>
<br>
<div class="ToggleTriggerAnchor bbCodeSpoilerContainer">
<button type="button" class="button bbCodeSpoilerButton ToggleTrigger Tooltip JsOnly" data-target="> .SpoilerTarget"><span>Spoiler: <span class="SpoilerTitle">MediaInfo</span></span></button>
<div class="SpoilerTarget bbCodeSpoilerText">General<br>
ID : 1 (0x1)<br>
Complete name : E:\Remembering Whitney - The Oprah Interview 1080i HDTV DD5.1 MPEG2-TrollHD.ts<br>
Format : MPEG-TS<br>
File size : 8.70 GiB<br>
Duration : 1 h 23 min<br>
Overall bit rate mode : Variable<br>
Overall bit rate : 15.0 Mb/s<br>
Movie name : ReWhitney: T<br>
Law rating : TV-PG<br>
<br>
Video<br>
ID : 361 (0x169)<br>
Menu ID : 1 (0x1)<br>
Format : MPEG Video<br>
Format version : Version 2<br>
Format profile : Main@High<br>
Format settings : CustomMatrix / BVOP<br>
Format settings, BVOP : Yes<br>
Format settings, Matrix : Custom<br>
Format settings, GOP : Variable<br>
Codec ID : 2<br>
Duration : 1 h 23 min<br>
Bit rate mode : Variable<br>
Bit rate : 13.8 Mb/s<br>
Maximum bit rate : 38.8 Mb/s<br>
Width : 1 920 pixels<br>
Height : 1 080 pixels<br>
Display aspect ratio : 16:9<br>
Frame rate : 29.970 (30000/1001) FPS<br>
Color space : YUV<br>
Chroma subsampling : 4:2:0<br>
Bit depth : 8 bits<br>
Compression mode : Lossy<br>
Bits/(Pixel*Frame) : 0.223<br>
Time code of first frame : 00:00:00;00<br>
Time code source : Group of pictures header<br>
GOP, Open/Closed : Open<br>
Stream size : 8.05 GiB (92%)<br>
<br>
Audio<br>
ID : 362 (0x16A)<br>
Menu ID : 1 (0x1)<br>
Format : AC-3<br>
Format/Info : Audio Coding 3<br>
Commercial name : Dolby Digital<br>
Codec ID : 129<br>
Duration : 1 h 23 min<br>
Bit rate mode : Constant<br>
Bit rate : 384 kb/s<br>
Channel(s) : 6 channels<br>
Channel layout : L R C LFE Ls Rs<br>
Sampling rate : 48.0 kHz<br>
Frame rate : 31.250 FPS (1536 SPF)<br>
Compression mode : Lossy<br>
Delay relative to video : 16 ms<br>
Stream size : 229 MiB (3%)<br>
Language : English<br>
Service kind : Complete Main<br>
<br>
Text #1<br>
ID : 361 (0x169)-CC1<br>
Menu ID : 1 (0x1)<br>
Format : EIA-608<br>
Muxing mode : A/53 / DTVCC Transport<br>
Muxing mode, more info : Muxed in Video #1<br>
Duration : 1 h 23 min<br>
Start time (commands) : 14 s 980 ms<br>
Start time : 15 s 47 ms<br>
Bit rate mode : Constant<br>
Stream size : 0.00 Byte (0%)<br>
Type of the first event : RollUp<br>
<br>
Text #2<br>
ID : 361 (0x169)-1<br>
Menu ID : 1 (0x1)<br>
Format : EIA-708<br>
Muxing mode : A/53 / DTVCC Transport<br>
Muxing mode, more info : Muxed in Video #1<br>
Duration : 1 h 23 min<br>
Bit rate mode : Constant<br>
Stream size : 0.00 Byte (0%)</div>
</div><br>
<div style="text-align: center">
<div class="bbCodeBlock bbCodeVfcHH HiddenContent">
<div class="attribution type">Hidden Content:</div>
<blockquote>You must either reply or click 'Like' to see the hidden information contained here.</blockquote>
</div></div></div>
<div class="messageTextEndMarker">&nbsp;</div>
</blockquote>
</article>]]></description>
                <author><![CDATA[melodie]]></author>
                </item>

                
                <item>
                <title><![CDATA[【Requests】[REQ AUD] - Kurt Elling Albums in FLAC]]></title>
                <link><![CDATA[https://sharemania.us/threads/kurt-elling-albums-in-flac.227284/]]></link>
                <description><![CDATA[<article>
<blockquote class="messageText SelectQuoteContainer ugc baseHtml">
Hello my dear music friends,<br>
<br>
I keep my fingers crossed hoping some of you will have the following albums available,<br>
<br>
<span style="text-decoration: underline">Kurt Elling </span><br>
<br>
<b>Nightmoves<br>
The Questions <br>
SuperBlue<br>
</b><br>
Thanks a million !
<div class="messageTextEndMarker">&nbsp;</div>
</blockquote>
</article>]]></description>
                <author><![CDATA[Jim King]]></author>
                </item>

                </channel></rss>